<?xml version="1.0" encoding="UTF-8"?>
<svg width="640" height="640" version="1.1" viewBox="0 0 640 640" xml:space="preserve" xmlns="http://www.w3.org/2000/svg">
    <ellipse cx="321.15" cy="350" rx="211.15" ry="210"/>
    <path d="m320 47.589-273.39 209.09 104.43 338.32h337.93l104.43-338.32zm0 86.73c81.81 0 170.13 71.147 195.03 149.16 25.607 80.207-6.8101 191.37-74.496 241.35-64.668 47.757-176.41 47.757-241.08 0-67.685-49.985-100.1-161.15-74.496-241.35 24.908-78.016 113.22-149.16 195.03-149.16z" style="color:#000000;fill:#ed1c24;stroke-width:20;stroke:#000"/>
    <path d="m280.94 211.28c-12.1 12.284-16.657 22.106-21.98 45.722-10.917-9.65-11.226-6.8868-19.103 15.01 14.342 19.554 11.866 19.062 23.065 4.4802 5.154 10.077 9.7734 23.446 15.826 33.948-32.828-3.3657-27.845-7.5633-25.738 28.433 36.618 17.316 29.335 19.407 41.127-5.1007 6.52 2.409 25.752 16.393 27.186 23.471-31.338 4.4905-32.533-3.2979-24.038 29.977 36.95 16.053 25.532 12.517 39.058-8.8487 5.9527 3.8177 14.969 23.962 15.07 30.051-22.252-6.1135-12.77-5.7031-23.456 11.741 16.803 15.37 6.4143 15.6 23.057 6.9815-1.451 13.465-15.133 22.638-40.245 22.884-32.91 0.32232-60.961-12.825-65.583-16.967-0.73869-1.1251 3.0264-5.611 7.339-8.8942 8.5389-6.5007 7.7662-7.9029-3.1307-4.1872-5.4961 1.8741-10.876 2.9035-11.832 2.0312-0.76331-0.69676-1.627-5.3185 5.5449-10.157 10.221-6.8959 8.0935-9.6392-3.3885-3.8889-10.281 5.1488-12.892 4.5163-13.528 3.6812-0.32098-0.42168-2.9654-3.0957 5.6027-9.6708 9.278-7.1198 6.4566-9.2343-5.5911-3.2843l-9.8253 4.8523c-19.638-17.903-28.261-41.385-22.729-12.884 11.831 60.955 46.945 122.91 126.28 121.31 154.62-3.1122 153.45-128.95 79.699-177.4-45.374-29.811-41.713-47.975-14.924-51.575 37.626-5.0551 48.25-7.9323 48.961-29.788 0.70077-21.539-31.584-22.821-48.458-42.319-22.364-25.841-79.61-24.639-104.26 0.38995zm82.479 2.3454c10.148-0.14237 10.047 14.586 0.076 14.558-9.971-0.0283-10.224-14.415-0.076-14.558z" style="fill:#6dca4d;stroke-width:20"/>
    <path d="m320 57.59-263.39 201.45 100.61 325.96h325.57l100.61-325.96zm0 83.561c78.818 0 163.9 68.547 187.9 143.71 24.671 77.277-6.561 184.38-71.771 232.54-62.303 46.012-169.95 46.012-232.26 0-65.21-48.159-96.441-155.26-71.771-232.54 23.997-75.166 109.08-143.71 187.9-143.71z" style="color:#000000;fill:#ed1c24"/>
</svg>
