<?xml version="1.0" encoding="UTF-8" standalone="no"?>
<!-- Created with Inkscape (http://www.inkscape.org/) -->

<svg
   width="1200"
   height="630"
   viewBox="0 0 317.49999 166.6875"
   version="1.1"
   id="svg5231"
   inkscape:version="1.2.2 (732a01da63, 2022-12-09)"
   sodipodi:docname="Logo.svg"
   inkscape:export-filename="Logo.png"
   inkscape:export-xdpi="96"
   inkscape:export-ydpi="96"
   xmlns:inkscape="http://www.inkscape.org/namespaces/inkscape"
   xmlns:sodipodi="http://sodipodi.sourceforge.net/DTD/sodipodi-0.dtd"
   xmlns="http://www.w3.org/2000/svg"
   xmlns:svg="http://www.w3.org/2000/svg">
  <sodipodi:namedview
     id="namedview5233"
     pagecolor="#ffffff"
     bordercolor="#000000"
     borderopacity="0.25"
     inkscape:showpageshadow="2"
     inkscape:pageopacity="0.0"
     inkscape:pagecheckerboard="0"
     inkscape:deskcolor="#d1d1d1"
     inkscape:document-units="mm"
     showgrid="false"
     inkscape:zoom="0.46769781"
     inkscape:cx="-67.351181"
     inkscape:cy="-40.624522"
     inkscape:window-width="1366"
     inkscape:window-height="705"
     inkscape:window-x="-8"
     inkscape:window-y="-8"
     inkscape:window-maximized="1"
     inkscape:current-layer="layer1" />
  <defs
     id="defs5228" />
  <g
     inkscape:label="Logo"
     inkscape:groupmode="layer"
     id="layer1"
     transform="translate(49.243156,-182.61902)"
     style="display:inline">
    <rect
       style="display:inline;opacity:1;fill:#4d4d4d;fill-opacity:1;stroke-width:0.898225;stroke-linecap:round;stroke-linejoin:round;stroke-dasharray:none"
       id="rect26948"
       width="317.5"
       height="166.6875"
       x="-49.243156"
       y="182.61902"
       inkscape:label="Back" />
    <g
       aria-label="StegaNotes "
       id="text5379"
       style="font-size:50.8px;font-family:'Courier New';-inkscape-font-specification:'Courier New';display:inline;fill:#ed1c24;stroke-width:5.29167;stroke-linecap:round;stroke-linejoin:round"
       transform="matrix(0.85092465,0,0,0.87962172,-34.241522,163.73082)"
       inkscape:label="Name">
      <path
         d="m 322.29556,161.70396 q 0,0.7112 -0.4064,0.9652 -0.3556,0.2032 -1.016,-0.0508 -3.2004,-1.3208 -6.9088,-1.3208 -3.5052,0 -5.2832,1.1684 -1.778,1.1176 -1.778,3.2512 0,0.9144 0.3048,1.6256 0.3048,0.6604 1.016,1.2192 0.762,0.508 1.9812,0.9652 1.2192,0.4064 3.048,0.8128 l 1.5748,0.3556 q 2.4384,0.5588 4.1148,1.27 1.7272,0.6604 2.794,1.6256 1.0668,0.9652 1.524,2.2352 0.508,1.27 0.508,2.9972 0,3.9624 -3.048,6.1468 -3.048,2.1336 -8.4328,2.1336 -4.1148,0 -8.6868,-1.4224 -1.0668,-0.3048 -1.0668,-1.3716 v -4.9784 q 0,-0.7112 0.4064,-0.9652 0.4064,-0.254 1.0668,0.0508 4.4196,1.9304 8.382,1.9304 2.2352,0 3.302,-0.8128 1.0668,-0.8128 1.1176,-1.8288 0.0508,-1.0668 -0.8636,-2.032 -0.9144,-1.016 -2.6416,-1.4224 l -2.54,-0.5588 q -4.2672,-0.9652 -6.1468,-2.6416 -1.8796,-1.6764 -1.8796,-4.9276 0,-3.9624 2.7432,-6.0452 2.7432,-2.1336 7.9248,-2.1336 4.572,0 7.874,1.1176 1.016,0.4064 1.016,1.4224 z"
         style="font-family:OpenDyslexic3;-inkscape-font-specification:OpenDyslexic3;stroke:#000000;stroke-width:1.1558633;stroke-dasharray:none;stroke-opacity:1"
         id="path5943"
         inkscape:label="s" />
      <path
         d="m 290.444,168.15556 q 0.6604,0 0.9144,-0.3556 0.254,-0.4064 0.1524,-1.016 -0.508,-2.8956 -2.5908,-4.572 -2.032,-1.7272 -5.08,-1.7272 -1.6764,0 -3.0988,0.508 -1.4224,0.4572 -2.54,1.3208 -1.0668,0.8636 -1.778,2.032 -0.6604,1.1684 -0.8128,2.54 -0.1524,1.3208 1.1684,1.3208 z m 4.6736,2.4892 q 0,1.27 -1.2192,1.27 h -17.1196 q -1.2192,0 -1.2192,1.27 0,2.2352 0.4572,3.6068 0.508,1.3208 1.5748,2.0828 1.0668,0.762 2.7432,1.016 1.7272,0.254 4.2164,0.254 2.286,0 4.6736,-0.1016 2.3876,-0.1016 3.9624,-0.508 0.6096,-0.1524 1.016,0.0508 0.4064,0.1524 0.4064,0.8636 l 0.0508,3.7084 q 0,1.0668 -0.9144,1.4224 -1.0668,0.5588 -2.0828,0.8636 -0.9652,0.3556 -2.0828,0.508 -1.0668,0.1524 -2.3368,0.1524 -1.27,0.0508 -2.8448,0 -7.2136,-0.2032 -10.6172,-3.6068 -3.3528,-3.4544 -3.2512,-10.16 0.0508,-3.4036 0.9652,-6.2484 0.9144,-2.8448 2.5908,-4.8768 1.7272,-2.032 4.1656,-3.1496 2.4384,-1.1176 5.588,-1.1176 2.0828,0 4.1148,0.8128 2.032,0.762 3.6068,2.3368 1.6256,1.524 2.5908,3.81 0.9652,2.286 0.9652,5.2832 z"
         style="font-size:50.8px;font-family:OpenDyslexic3;-inkscape-font-specification:OpenDyslexic3;display:inline;fill:#ed1c24;stroke:#000000;stroke-width:1.1558633;stroke-linecap:round;stroke-linejoin:round;stroke-dasharray:none;stroke-opacity:1"
         id="path5941"
         inkscape:label="e" />
      <path
         d="m 254.98558,151.69636 q 1.27,0 1.2192,1.27 l -0.1524,4.3688 q -0.0508,1.27 1.2192,1.27 h 3.9116 q 1.2192,0 1.2192,1.27 v 1.0668 q 0,1.2192 -1.2192,1.2192 h -3.9624 q -1.27,0 -1.27,1.2192 l -0.2032,10.8712 q -0.0508,2.286 -0.0508,3.5052 0.0508,1.1684 0.4572,1.7272 0.4064,0.508 1.3716,0.5588 1.016,0.0508 2.9464,0.0508 h 1.4224 q 1.2192,0 1.2192,1.27 v 3.81 q 0,1.2192 -1.2192,1.2192 h -1.4224 q -3.3528,0 -5.3848,-0.2032 -2.032,-0.2032 -3.0988,-1.1176 -1.0668,-0.9144 -1.3716,-2.7432 -0.3048,-1.8288 -0.1524,-5.08 l 0.6604,-13.8684 q 0.0508,-1.2192 -1.2192,-1.2192 h -1.016 q -1.0668,0 -1.0668,-1.2192 v -1.0668 q 0,-1.27 1.2192,-1.27 h 0.9144 q 1.1684,0 1.27,-1.2192 l 0.1524,-4.4704 q 0.0508,-1.2192 1.27,-1.2192 z"
         style="font-size:50.8px;font-family:OpenDyslexic3;-inkscape-font-specification:OpenDyslexic3;display:inline;fill:#ed1c24;stroke:#000000;stroke-width:1.1558633;stroke-linecap:round;stroke-linejoin:round;stroke-dasharray:none;stroke-opacity:1"
         id="path5939"
         inkscape:label="t" />
      <path
         style="color:#000000;font-size:50.8px;font-family:'Courier New';-inkscape-font-specification:'Courier New';display:inline;fill:#ed1c24;fill-opacity:1;stroke:#000000;stroke-width:1.1558633;stroke-linecap:round;stroke-linejoin:round;stroke-dasharray:none;stroke-opacity:1"
         d="m 227.65546,158.47389 -14.03425,10.73363 5.36062,17.36729 h 17.34726 l 0.38411,-1.24443 4.97652,-16.12286 z m 0,4.45219 c 4.19967,0 8.73327,3.65226 10.01189,7.65717 1.31452,4.11739 -0.34958,9.82375 -3.82418,12.38972 -3.3197,2.45157 -9.05572,2.45157 -12.37542,0 -3.47458,-2.56597 -5.1387,-8.27233 -3.82418,-12.38972 1.27862,-4.00491 5.81222,-7.65717 10.01189,-7.65717 z"
         id="path6091"
         sodipodi:nodetypes="cccccccaaaaaa"
         inkscape:label="o" />
      <path
         d="m 174.92476,145.04156 q 0.1016,-1.4732 1.4732,-1.4732 h 4.7752 q 1.1684,0 1.7272,1.0668 l 16.5608,30.3784 q 0.5588,1.016 1.1176,0.8636 0.6096,-0.2032 0.6604,-1.27 l 0.762,-30.48 q 0,-1.4224 1.4732,-1.4224 h 2.54 q 1.4732,0 1.4732,1.4224 v 40.8432 q 0,1.4224 -1.4732,1.4224 h -5.9436 q -1.2192,0 -1.7272,-1.0668 l -16.8656,-31.9024 q -0.254,-0.508 -0.6096,-0.7112 -0.3048,-0.2032 -0.5588,-0.1016 -0.254,0.0508 -0.4572,0.4064 -0.1524,0.3048 -0.1016,0.8636 l 2.0828,31.0388 q 0.1016,1.4732 -1.4224,1.4732 h -5.7404 q -1.524,0 -1.4224,-1.4732 z"
         style="font-size:50.8px;font-family:OpenDyslexic3;-inkscape-font-specification:OpenDyslexic3;display:inline;fill:#ed1c24;stroke:#000000;stroke-width:1.1558633;stroke-linecap:round;stroke-linejoin:round;stroke-dasharray:none;stroke-opacity:1"
         id="path5935"
         inkscape:label="N" />
      <path
         d="m 155.76386,99.81294 q 1.6764,0 2.8448,-0.2032 1.2192,-0.254 1.9812,-0.9652 0.762,-0.762 1.1176,-2.0828 0.4064,-1.3208 0.4064,-3.505199 0,-1.1684 -1.2192,-1.1684 h -2.8956 q -2.3368,0 -3.9116,0.254 -1.524,0.2032 -2.4892,0.7112 -0.9652,0.508 -1.4224,1.3208 -0.4572,0.761999 -0.5588,1.828799 -0.0508,0.4064 -0.0508,0.762 0.0508,0.3048 0.2032,0.7112 0.3048,0.8128 0.8636,1.27 0.5588,0.4572 1.3208,0.7112 0.762,0.2032 1.7272,0.3048 0.9652,0.0508 2.0828,0.0508 z m 1.4732,-22.199599 q 11.9888,0 11.9888,12.5984 v 14.630399 q 0,1.2192 -1.2192,1.2192 h -2.0828 q -1.27,0 -1.27,-1.2192 v -0.5588 q 0,-0.8636 -0.4064,-0.9652 -0.3556,-0.1524 -0.9652,0.4572 -1.4732,1.4732 -3.5052,2.2352 -1.9812,0.762 -4.7244,0.762 -2.1336,0 -3.8608,-0.6604 -1.6764,-0.6096 -2.8956,-1.7272 -1.2192,-1.1684 -1.8796,-2.794 -0.6604,-1.6256 -0.6604,-3.6068 0,-9.448799 12.4968,-9.448799 h 5.1816 q 1.2192,0 1.2192,-0.4572 0,-3.2004 -1.9304,-5.0292 -1.9304,-1.8796 -5.9436,-2.0828 -1.9812,-0.1016 -3.8608,0.3556 -1.8796,0.4572 -3.6576,1.2192 -0.6604,0.3048 -1.0668,0.1016 -0.4064,-0.254 -0.4064,-0.9652 v -1.0668 q 0,-1.016 1.016,-1.4224 4.2672,-1.5748 8.4328,-1.5748 z"
         style="font-size:50.8px;font-family:OpenDyslexic3;-inkscape-font-specification:OpenDyslexic3;display:inline;fill:#6dca4d;fill-opacity:1;stroke:#000000;stroke-width:1.1558633;stroke-linecap:round;stroke-linejoin:round;stroke-dasharray:none;stroke-opacity:1"
         id="path6001"
         transform="translate(-3.3942946,80.33142)"
         inkscape:label="a" />
      <path
         d="m 131.53232,91.583341 q 0,-5.08 -2.032,-7.7216 -2.032,-2.6924 -5.7404,-2.6924 -3.6576,0 -5.4864,2.6924 -1.778,2.6416 -1.778,7.7216 0.254,2.4384 0.6604,3.860799 0.4572,1.4224 1.2192,2.1336 0.762,0.7112 1.9812,0.9144 1.2192,0.1524 3.048,0.1524 1.8288,0 3.302,-0.1524 1.524,-0.2032 2.5908,-0.9144 1.0668,-0.7112 1.6256,-2.1336 0.6096,-1.422399 0.6096,-3.860799 z m 6.096,11.023599 q -0.2032,6.5532 -1.0668,10.7188 -0.8128,4.2164 -2.4384,6.604 -1.5748,2.3876 -3.9624,3.2512 -2.3368,0.9144 -5.588,0.9144 -4.2672,0 -7.6708,-1.1176 -1.016,-0.3048 -1.016,-1.3716 v -5.4864 q 0,-0.7112 0.4064,-0.9652 0.4064,-0.2032 1.0668,0.1016 1.6256,0.7112 3.2512,1.016 1.6256,0.3556 3.2512,0.3556 3.6576,0 5.6896,-2.6416 2.032,-2.5908 2.8956,-8.4328 0.1016,-0.7112 0.2032,-1.3208 0.1016,-0.6096 0.0508,-0.9144 0,-0.3556 -0.254,-0.3556 -0.2032,0 -0.762,0.508 -1.27,1.1684 -3.0988,1.8796 -1.8288,0.7112 -4.1656,0.7112 -2.54,0 -4.6736,-1.016 -2.0828,-1.016 -3.6068,-2.8448 -1.4732,-1.8796 -2.286,-4.5212 -0.8128,-2.6416 -0.8128,-5.841999 0,-3.2004 0.8128,-5.842 0.8128,-2.6416 2.286,-4.4704 1.524,-1.8796 3.6068,-2.8956 2.1336,-1.016 4.6736,-1.016 4.9784,0 7.6708,3.1496 0.5588,0.6604 0.9652,0.6096 0.4064,-0.1016 0.508,-0.9652 l 0.1016,-1.0668 q 0.0508,-1.0668 1.3208,-1.0668 h 2.1336 q 1.27,0 1.2192,1.27 z"
         style="font-size:50.8px;font-family:OpenDyslexic3;-inkscape-font-specification:OpenDyslexic3;display:inline;fill:#6dca4d;fill-opacity:1;stroke:#000000;stroke-width:1.1558633;stroke-linecap:round;stroke-linejoin:round;stroke-dasharray:none;stroke-opacity:1"
         id="path5999"
         transform="translate(-3.3942946,80.33142)"
         inkscape:label="g" />
      <path
         d="m 100.95076,87.824141 q 0.6604,0 0.9144,-0.3556 0.254,-0.4064 0.1524,-1.016 -0.508,-2.8956 -2.590804,-4.572 -2.032,-1.7272 -5.08,-1.7272 -1.6764,0 -3.0988,0.508 -1.4224,0.4572 -2.54,1.3208 -1.0668,0.8636 -1.778,2.032 -0.6604,1.1684 -0.8128,2.54 -0.1524,1.3208 1.1684,1.3208 z m 4.6736,2.4892 q 0,1.27 -1.2192,1.27 H 87.285556 q -1.2192,0 -1.2192,1.27 0,2.235199 0.4572,3.606799 0.508,1.3208 1.5748,2.0828 1.0668,0.762 2.7432,1.016 1.7272,0.254 4.2164,0.254 2.286,0 4.6736,-0.1016 2.387604,-0.1016 3.962404,-0.508 0.6096,-0.1524 1.016,0.0508 0.4064,0.1524 0.4064,0.8636 l 0.0508,3.7084 q 0,1.0668 -0.9144,1.4224 -1.0668,0.5588 -2.0828,0.8636 -0.9652,0.3556 -2.0828,0.508 -1.066804,0.1524 -2.336804,0.1524 -1.27,0.0508 -2.8448,0 -7.2136,-0.2032 -10.6172,-3.6068 -3.3528,-3.4544 -3.2512,-10.159999 0.0508,-3.4036 0.9652,-6.2484 0.9144,-2.8448 2.5908,-4.8768 1.7272,-2.032 4.1656,-3.1496 2.4384,-1.1176 5.588,-1.1176 2.0828,0 4.1148,0.8128 2.032004,0.762 3.606804,2.3368 1.6256,1.524 2.5908,3.81 0.9652,2.286 0.9652,5.2832 z"
         style="font-size:50.8px;font-family:OpenDyslexic3;-inkscape-font-specification:OpenDyslexic3;display:inline;fill:#6dca4d;fill-opacity:1;stroke:#000000;stroke-width:1.1558633;stroke-linecap:round;stroke-linejoin:round;stroke-dasharray:none;stroke-opacity:1"
         id="path5997"
         transform="translate(-3.3942946,80.33142)"
         inkscape:label="e" />
      <path
         d="m 65.492334,71.364941 q 1.27,0 1.2192,1.27 l -0.1524,4.3688 q -0.0508,1.27 1.2192,1.27 h 3.9116 q 1.2192,0 1.2192,1.27 v 1.0668 q 0,1.2192 -1.2192,1.2192 h -3.9624 q -1.27,0 -1.27,1.2192 l -0.2032,10.8712 q -0.0508,2.285999 -0.0508,3.505199 0.0508,1.1684 0.4572,1.7272 0.4064,0.508 1.3716,0.5588 1.016,0.0508 2.9464,0.0508 h 1.4224 q 1.2192,0 1.2192,1.27 v 3.81 q 0,1.2192 -1.2192,1.2192 h -1.4224 q -3.3528,0 -5.3848,-0.2032 -2.032,-0.2032 -3.0988,-1.1176 -1.0668,-0.9144 -1.3716,-2.7432 -0.3048,-1.8288 -0.1524,-5.08 l 0.6604,-13.868399 q 0.0508,-1.2192 -1.2192,-1.2192 h -1.016 q -1.0668,0 -1.0668,-1.2192 v -1.0668 q 0,-1.27 1.2192,-1.27 h 0.9144 q 1.1684,0 1.27,-1.2192 l 0.1524,-4.4704 q 0.0508,-1.2192 1.27,-1.2192 z"
         style="font-size:50.8px;font-family:OpenDyslexic3;-inkscape-font-specification:OpenDyslexic3;display:inline;fill:#6dca4d;fill-opacity:1;stroke:#000000;stroke-width:1.1558633;stroke-linecap:round;stroke-linejoin:round;stroke-dasharray:none;stroke-opacity:1"
         id="path5995"
         transform="translate(-3.3942946,80.33142)"
         inkscape:label="t" />
      <path
         id="path6107"
         style="display:inline;fill:#6dca4d;fill-opacity:1;stroke:#000000;stroke-width:1.1558633;stroke-dasharray:none;stroke-opacity:1"
         d="m 26.221522,144.98538 c -1.663049,1.69878 -2.289335,3.05714 -3.020931,6.32327 -1.500439,-1.33457 -1.542921,-0.95242 -2.625593,2.07583 1.971226,2.70435 1.630913,2.6362 3.170137,0.61957 0.708383,1.39361 1.343278,3.24253 2.175168,4.69493 -4.511967,-0.46549 -3.827057,-1.046 -3.53751,3.93216 5.032834,2.39485 4.031878,2.68401 5.652608,-0.70539 0.896119,0.33315 3.539476,2.26713 3.736515,3.24603 -4.307173,0.62102 -4.47147,-0.45609 -3.303801,4.14576 5.078524,2.22006 3.509208,1.73108 5.368271,-1.22376 0.81815,0.528 2.057332,3.31387 2.071212,4.15598 -3.058387,-0.84548 -1.755143,-0.78872 -3.223904,1.6237 2.309509,2.12558 0.881603,2.15748 3.168998,0.96553 -0.199425,1.86219 -2.07992,3.13075 -5.531347,3.16477 -4.523243,0.0447 -8.378633,-1.77361 -9.013883,-2.34643 -0.101529,-0.1556 0.415955,-0.776 1.008693,-1.23005 1.173612,-0.89904 1.067404,-1.09298 -0.430289,-0.57909 -0.755398,0.25919 -1.494825,0.40155 -1.626171,0.28092 -0.104911,-0.0964 -0.223614,-0.73552 0.762105,-1.40469 1.404832,-0.9537 1.112392,-1.33309 -0.465725,-0.53784 -1.413058,0.71206 -1.771949,0.62458 -1.859302,0.50911 -0.04411,-0.0583 -0.407575,-0.42813 0.770054,-1.33746 1.275194,-0.98465 0.887415,-1.27706 -0.768461,-0.4542 l -1.350417,0.67106 c -2.699052,-2.47594 -3.884332,-5.72344 -3.123987,-1.78183 1.626139,8.4299 6.452289,16.9982 17.355948,16.77736 21.251002,-0.43043 21.091236,-17.83284 10.954109,-24.53433 -6.236382,-4.12273 -5.733156,-6.63485 -2.051188,-7.13263 5.171423,-0.69912 6.631646,-1.09702 6.729374,-4.11956 0.09632,-2.97879 -4.341036,-3.15615 -6.660226,-5.85264 -3.073713,-3.57377 -10.941844,-3.40748 -14.330457,0.0539 z m 11.336115,0.32435 c 1.3948,-0.0197 1.380898,2.01719 0.01044,2.0133 -1.370437,-0.004 -1.405254,-1.99362 -0.01044,-2.0133 z"
         sodipodi:nodetypes="sccccccccccccscsssssssscssssssszzz"
         inkscape:label="S" />
    </g>
    <g
       id="g22304"
       transform="matrix(0.16710526,0,0,0.16710526,56.03316,182.062)"
       inkscape:label="Icon">
      <circle
         style="fill:#000000;fill-opacity:1;stroke:none;stroke-width:10.2883;stroke-linecap:round;stroke-linejoin:round;stroke-dasharray:none;stroke-opacity:1"
         id="path994"
         cx="320"
         cy="350"
         inkscape:label="Circle"
         r="210" />
      <path
         style="color:#000000;display:inline;fill:#ed1c24;fill-opacity:1;stroke:#000000;stroke-width:20;stroke-dasharray:none;stroke-opacity:1"
         d="M 320.00002,47.589459 46.61052,256.68236 151.03639,595.00001 h 337.92729 l 7.48255,-24.24184 96.94329,-314.07581 z m 0,86.729641 c 81.81025,0 170.12551,71.14658 195.03322,149.16285 25.60716,80.20725 -6.81011,191.36829 -74.49567,241.35366 -64.66826,47.757 -176.40684,47.757 -241.07511,0 C 131.77697,474.85024 99.35966,363.6892 124.96683,283.48195 149.87451,205.46568 238.18979,134.3191 320.00002,134.3191 Z"
         id="path858"
         sodipodi:nodetypes="cccccccaaaaaa"
         inkscape:label="PentagonRed2" />
      <path
         id="path12212-0"
         style="fill:#6dca4d;fill-opacity:1;stroke-width:20;stroke-dasharray:none"
         d="m 280.93689,211.27587 c -12.09994,12.2835 -16.65664,22.10555 -21.97955,45.72219 -10.91682,-9.65 -11.22589,-6.88676 -19.10314,15.00989 14.34214,19.5545 11.8661,19.06185 23.06511,4.48015 5.15402,10.07669 9.77335,23.44592 15.82597,33.94774 -32.82794,-3.36571 -27.8447,-7.56331 -25.73802,28.43287 36.61762,17.31638 29.33492,19.40738 41.12693,-5.10068 6.51995,2.40896 25.75236,16.39318 27.18596,23.47139 -31.3379,4.49046 -32.53329,-3.2979 -24.03763,29.97709 36.95007,16.05282 25.53211,12.51709 39.05819,-8.8487 5.95266,3.81773 14.96863,23.96188 15.06962,30.05102 -22.25206,-6.11352 -12.76998,-5.70308 -23.45631,11.74069 16.8034,15.36965 6.41431,15.60014 23.05684,6.9815 -1.45098,13.465 -15.13299,22.63778 -40.2447,22.88373 -32.90998,0.32232 -60.96082,-12.82465 -65.58275,-16.96659 -0.73869,-1.12508 3.02638,-5.61099 7.339,-8.89422 8.53891,-6.5007 7.76618,-7.90293 -3.13068,-4.18719 -5.49608,1.87412 -10.87597,2.90353 -11.8316,2.03123 -0.76331,-0.69676 -1.62697,-5.31849 5.54488,-10.15711 10.2212,-6.89591 8.09348,-9.63918 -3.3885,-3.88894 -10.28105,5.14881 -12.89225,4.51627 -13.52782,3.68125 -0.32098,-0.42168 -2.9654,-3.09574 5.60273,-9.67081 9.27799,-7.11982 6.45661,-9.23426 -5.59114,-3.28432 l -9.82528,4.85233 c -19.63763,-17.90288 -28.26143,-41.38497 -22.72936,-12.884 11.83139,60.95477 46.94524,122.91025 126.27752,121.3134 154.61694,-3.11225 153.45453,-128.94549 79.69934,-177.40237 -45.37435,-29.81078 -41.713,-47.97534 -14.92392,-51.57453 37.62597,-5.05514 48.25017,-7.93231 48.96123,-29.78776 0.70077,-21.53885 -31.58429,-22.8214 -48.45813,-42.3192 -22.36357,-25.84121 -79.61009,-24.63876 -104.26479,0.38995 z m 82.47872,2.34537 c 10.1482,-0.14237 10.04705,14.58579 0.076,14.55764 -9.97097,-0.0283 -10.22426,-14.41525 -0.076,-14.55764 z"
         sodipodi:nodetypes="sccccccccccccscsssssssscssssssszzz"
         inkscape:label="SGreen" />
      <path
         style="color:#000000;display:inline;fill:#ed1c24;fill-opacity:1;stroke:none;stroke-width:0;stroke-dasharray:none;stroke-opacity:1"
         d="M 320.00004,57.589721 56.610461,259.04316 157.21668,584.99998 h 325.56671 l 7.20885,-23.35615 93.39735,-302.60067 z m 0,83.560859 c 78.81782,0 163.90271,68.54717 187.89934,143.71302 24.67051,77.27679 -6.56101,184.37641 -71.7708,232.53551 -62.30282,46.01215 -169.95428,46.01215 -232.25711,0 C 138.66173,469.24001 107.43016,362.14039 132.10069,284.8636 156.09731,209.69775 241.18221,141.15058 320.00004,141.15058 Z"
         id="path3038"
         sodipodi:nodetypes="cccccccaaaaaa"
         inkscape:label="PentagonRed" />
    </g>
  </g>
</svg>
