<?xml version="1.0" encoding="UTF-8"?>
<svg width="1e3" height="210" version="1.1" viewBox="0 0 1e3 210" xmlns="http://www.w3.org/2000/svg">
	<g transform="translate(27.352 -121)">
		<path d="m37.287 122.89c-8.9238 0.0914-17.974 3.1018-23.423 8.8483-5.3482 5.6407-7.3617 10.151-9.7146 20.995-4.8253-4.4314-4.9613-3.1613-8.443 6.8939 6.3394 8.9794 5.245 8.752 10.195 2.056 2.2782 4.6273 4.3184 10.767 6.9938 15.59-14.511-1.5456-12.308-3.4735-11.377 13.056 16.185 7.9518 12.967 8.9134 18.179-2.3408 2.8819 1.1062 11.384 7.5274 12.017 10.778-13.852 2.062-14.38-1.514-10.625 13.766 16.332 7.3717 11.284 5.748 17.263-4.0632 2.6312 1.7532 6.6172 11.003 6.6619 13.799-9.8358-2.8074-5.6454-2.6185-10.369 5.3917 7.4274 7.0579 2.8348 7.1628 10.191 3.205-0.64134 6.1833-6.6886 10.396-17.789 10.508-14.547 0.14842-26.945-5.8891-28.987-7.791-0.32652-0.51666 1.3378-2.5771 3.244-4.0848 3.7743-2.9852 3.4318-3.6279-1.3847-1.9214-2.4294 0.86061-4.8079 1.333-5.2302 0.93243-0.33739-0.32009-0.71897-2.4422 2.4511-4.6642 4.5178-3.1667 3.5772-4.4275-1.498-1.7869-4.5445 2.3644-5.6975 2.0747-5.9782 1.6913-0.14186-0.19358-1.3108-1.4224 2.4765-4.4417 4.101-3.2695 2.8527-4.2402-2.4726-1.5079l-4.3416 2.2277c-8.68-8.221-12.492-19.004-10.046-5.9163 5.2295 27.991 20.751 56.441 55.817 55.707 68.343-1.4292 67.829-59.21 35.228-81.463-20.056-13.689-18.437-22.031-6.5954-23.684 16.631-2.3214 21.326-3.6422 21.64-13.678 0.30976-9.8909-13.961-10.481-21.419-19.435-4.9427-5.9333-13.74-8.7603-22.663-8.669zm13.035 9.9251c4.4857-0.0654 4.4407 6.698 0.03319 6.685-4.4072-0.0133-4.5188-6.6196-0.03319-6.685zm71.405 21.206c-2.614 0-3.975 1.3508-4.084 4.0496l-0.49021 14.843c-0.21782 2.6988-1.5788 4.0476-4.084 4.0476h-2.9413c-2.614 0-3.9219 1.4061-3.9219 4.2173v3.5426c0 2.6988 1.1443 4.0476 3.4315 4.0476h3.2675c2.7229 0 4.0306 1.3508 3.9219 4.0496l-2.1249 46.048c-0.32675 7.197-0.16328 12.819 0.49021 16.868 0.65349 4.0483 2.1248 7.0838 4.412 9.1079 2.2872 2.0241 5.6081 3.2623 9.9645 3.7122 4.3564 0.44988 10.129 0.67494 17.318 0.67494h4.5741c2.614 0 3.9219-1.3508 3.9219-4.0496v-12.65c0-2.8113-1.3078-4.2173-3.9219-4.2173h-4.5741c-4.1387 0-7.2981-0.0553-9.4763-0.16775-2.0694-0.11246-3.5386-0.73059-4.4101-1.8551-0.87131-1.237-1.3618-3.1487-1.4707-5.735 0-2.6988 0.0552-6.5794 0.16405-11.64l0.65233-36.096c0-2.6988 1.3629-4.0496 4.0859-4.0496h12.742c2.614 0 3.9219-1.3489 3.9219-4.0476v-3.5426c0-2.8113-1.3078-4.2173-3.9219-4.2173h-12.58c-2.7229 0-4.0287-1.4042-3.9197-4.2156l0.49022-14.507c0.10892-2.8113-1.1989-4.2173-3.9219-4.2173zm100.31 20.748c-6.7526 0-12.744 1.2382-17.972 3.7122-5.2279 2.474-9.693 5.9595-13.396 10.458-3.5942 4.4982-6.3712 9.8955-8.3317 16.193-1.9605 6.2972-2.9945 13.213-3.1034 20.748-0.21782 14.844 3.2665 26.089 10.455 33.736 7.2974 7.5344 18.68 11.526 34.144 11.975 3.3765 0.11256 6.4252 0.11256 9.1482 0 2.7229 0 5.2282-0.16802 7.5155-0.50524 2.3961-0.33735 4.6298-0.90019 6.6989-1.6874 2.1783-0.67471 4.4098-1.6306 6.697-2.8675 1.9605-0.78713 2.9413-2.3612 2.9413-4.7226l-0.16208-12.313c0-1.5743-0.43724-2.5302-1.3086-2.8675-0.87131-0.44982-1.9605-0.50707-3.2675-0.16971-3.3765 0.8996-7.6229 1.4624-12.742 1.6873-5.1189 0.2249-10.13 0.33749-15.031 0.33749-5.337 0-9.857-0.2824-13.56-0.84464-3.5942-0.56226-6.5349-1.686-8.8221-3.3729-2.2872-1.6868-3.9753-3.9915-5.0642-6.9151-0.98023-3.0362-1.4706-7.0293-1.4706-11.977 0-2.8113 1.3078-4.2156 3.9219-4.2156h55.055c2.614 0 3.9216-1.4061 3.9216-4.2173v-1.5176c0-6.6345-1.034-12.482-3.1034-17.542-2.0694-5.0603-4.8465-9.2786-8.3317-12.652-3.3765-3.4861-7.2447-6.0711-11.601-7.7578-4.3567-1.7992-8.7665-2.6998-13.232-2.6998zm96.715 0c-5.4457 0-10.457 1.1257-15.031 3.3746-4.4654 2.249-8.3317 5.4525-11.599 9.613-3.1585 4.0483-5.6087 8.9974-7.3515 14.845-1.7426 5.8476-2.6132 12.313-2.6132 19.398 0 7.0844 0.87058 13.55 2.6132 19.398 1.7426 5.8476 4.1927 10.852 7.3515 15.013 3.2674 4.0483 7.1337 7.1964 11.599 9.4453 4.5744 2.249 9.585 3.3749 15.031 3.3749 5.0102 0 9.4753-0.78797 13.396-2.3623 3.921-1.5743 7.2437-3.6538 9.9664-6.2404 1.1981-1.1245 2.0155-1.6874 2.4511-1.6874 0.5446 0 0.81639 0.39301 0.81639 1.1802 0.10902 0.67472 0.0537 1.6878-0.16402 3.0372s-0.43449 2.8108-0.65234 4.3853c-1.8516 12.932-4.9555 22.265-9.3122 28-4.3567 5.8476-10.457 8.7702-18.298 8.7702-3.4852 0-6.9713-0.393-10.457-1.1802-3.4852-0.6747-6.9694-1.7984-10.455-3.3729-1.4159-0.67471-2.5602-0.78727-3.4315-0.33745-0.87135 0.56224-1.3066 1.6306-1.3066 3.205v18.218c0 2.3615 1.0892 3.8782 3.2675 4.553 7.2974 2.4739 15.52 3.7122 24.669 3.7122 6.9707 0 12.962-1.0131 17.972-3.0372 5.1189-1.9117 9.3653-5.5099 12.742-10.795 3.4852-5.2851 6.0988-12.594 7.8416-21.928 1.8516-9.2212 2.9959-21.084 3.4315-35.592l2.2871-76.579c0.10903-2.8113-1.1969-4.2173-3.9197-4.2173h-6.8629c-2.7229 0-4.139 1.181-4.248 3.5426l-0.32617 3.5426c-0.21772 1.9117-0.76145 2.9801-1.6328 3.205-0.87131 0.11247-1.9073-0.56294-3.1054-2.0248-5.7724-6.9719-13.995-10.458-24.669-10.458zm105.54 0c-8.9312 0-17.971 1.7438-27.12 5.2297-2.1783 0.8996-3.2675 2.4736-3.2675 4.7226v3.5426c0 1.5743 0.43529 2.6427 1.3066 3.205 0.87132 0.44982 2.0157 0.33722 3.4315-0.33749 3.8119-1.6868 7.7316-3.0356 11.762-4.0476 4.03-1.0121 8.1699-1.407 12.418-1.1821 8.6044 0.44982 14.976 2.7565 19.115 6.9171 4.1387 4.0482 6.2069 9.6136 6.2069 16.698 0 1.0121-1.3058 1.5176-3.9196 1.5176h-16.664c-26.793 0-40.19 10.459-40.19 31.375 0 4.3856 0.70711 8.3768 2.123 11.975 1.4159 3.5983 3.4308 6.6913 6.0448 9.2776 2.614 2.4739 5.718 4.3856 9.3123 5.735 3.7032 1.4619 7.8432 2.1926 12.418 2.1926 5.8814 0 10.945-0.84328 15.193-2.5301 4.3567-1.6868 8.1146-4.1612 11.273-7.4225 1.307-1.3494 2.341-1.855 3.1034-1.5176 0.87133 0.2248 1.3066 1.2933 1.3066 3.205v1.8551c0 2.6988 1.363 4.0496 4.0859 4.0496h6.697c2.614 0 3.9219-1.3508 3.9219-4.0496v-48.578c0-27.888-12.851-41.834-38.557-41.834zm-202.26 8.4349c6.5349 0 11.981 1.9117 16.337 5.735 4.4654 3.7109 7.2428 8.7706 8.3317 15.18 0.21771 1.3494 0.0544 2.4732-0.49022 3.3729-0.54456 0.78716-1.5254 1.1821-2.9413 1.1821l-43.947 0.16775c-2.8318 0-4.0843-1.4614-3.7576-4.3853 0.32674-3.0362 1.1973-5.8466 2.6132-8.4329 1.5248-2.5864 3.4315-4.8359 5.7187-6.7474 2.3961-1.9117 5.1183-3.3752 8.1677-4.3873 3.0496-1.1245 6.3722-1.6854 9.9664-1.6854zm94.592 3.3729c7.9509 0 14.104 2.9801 18.46 8.9399 4.3567 5.8476 6.5349 14.395 6.5349 25.64 0 5.3977-0.65388 9.6694-1.9609 12.818-1.1981 3.1487-2.9392 5.5106-5.2263 7.0848-2.2871 1.5742-5.0662 2.5874-8.3336 3.0372-3.1585 0.33735-6.698 0.50523-10.619 0.50523s-7.1884-0.16788-9.8024-0.50523c-2.614-0.44982-4.7372-1.4629-6.3709-3.0372-1.6337-1.5743-2.9415-3.9364-3.9219-7.0848-0.8713-3.1486-1.5784-7.4205-2.123-12.818 0-11.245 1.9066-19.792 5.7187-25.64 3.9209-5.9598 9.802-8.9399 17.644-8.9399zm110.11 35.592h9.3122c2.614 0 3.9219 1.2936 3.9219 3.8799 0 4.8355-0.43529 8.7161-1.3066 11.64-0.76241 2.9237-1.9619 5.2283-3.5955 6.9151-1.6337 1.5743-3.7569 2.6427-6.3709 3.205-2.505 0.44981-5.554 0.67493-9.1482 0.67493-2.3962 0-4.6298-0.0572-6.6989-0.1697-2.0694-0.22489-3.9209-0.56261-5.5547-1.0124-1.6337-0.56224-3.0499-1.3483-4.248-2.3604-1.1982-1.0121-2.1238-2.4182-2.7773-4.2173-0.32674-0.8996-0.54534-1.6856-0.65426-2.3604 0-0.78717 0.0553-1.6324 0.16402-2.532 0.21772-2.3615 0.8166-4.384 1.7968-6.0707 0.98024-1.7992 2.5047-3.2626 4.5741-4.3873 2.0694-1.1245 4.7381-1.9105 8.0056-2.3604 3.3765-0.56225 7.5695-0.84465 12.58-0.84465z" style="fill:#6dca4d;stroke-linecap:round;stroke-linejoin:round;stroke-width:3.7772;stroke:#000"/>
		<path d="m583.89 124.16c-3.1586 0-4.7382 1.574-4.7382 4.7226l-2.4511 101.21c-0.10903 2.3615-0.81599 3.7657-2.123 4.2156-1.1981 0.33736-2.3956-0.61849-3.5936-2.8675l-53.26-100.87c-1.1981-2.3615-3.0495-3.5426-5.5547-3.5426h-15.357c-2.9407 0-4.5204 1.6313-4.7381 4.8923l-5.3903 132.41c-0.21772 3.2611 1.3066 4.8923 4.5741 4.8923h18.46c3.2675 0 4.7918-1.6313 4.5741-4.8923l-6.697-103.06c-0.10903-1.237-5.8e-4 -2.1928 0.32617-2.8675 0.43563-0.78718 0.92607-1.2375 1.4706-1.3499 0.5446-0.2248 1.1434-0.11224 1.7968 0.33745 0.76239 0.44982 1.4163 1.2358 1.9609 2.3604l54.238 105.93c1.0892 2.3615 2.9406 3.5426 5.5547 3.5426h19.115c3.1586 0 4.7381-1.5759 4.7381-4.7246v-135.62c0-3.1487-1.5796-4.7226-4.7381-4.7226zm158.14 29.855c-2.614 0-3.975 1.3508-4.084 4.0496l-0.49021 14.843c-0.21772 2.6988-1.5788 4.0476-4.084 4.0476h-2.9413c-2.614 0-3.9197 1.4061-3.9197 4.2176v3.5426c0 2.6988 1.1424 4.0476 3.4295 4.0476h3.2675c2.7229 0 4.0306 1.3508 3.9216 4.0496l-2.123 46.048c-0.32674 7.197-0.1653 12.819 0.48825 16.868 0.65349 4.0482 2.1248 7.0838 4.412 9.1079 2.2872 2.0241 5.61 3.2624 9.9664 3.7122 4.3567 0.44982 10.128 0.67495 17.316 0.67495h4.576c2.614 0 3.9197-1.3508 3.9197-4.0496v-12.65c0-2.8113-1.3058-4.2173-3.9197-4.2173h-4.576c-4.1387 0-7.2961-0.0554-9.4743-0.16768-2.0694-0.11256-3.5408-0.73059-4.412-1.8551-0.8713-1.237-1.3618-3.1487-1.4706-5.735 0-2.6988 0.055-6.5794 0.16401-11.64l0.65426-36.096c0-2.6988 1.361-4.0496 4.084-4.0496h12.744c2.614 0 3.9197-1.3488 3.9197-4.0476v-3.5426c0-2.8113-1.3058-4.2176-3.9197-4.2176h-12.58c-2.7229 0-4.0306-1.4042-3.9216-4.2156l0.49022-14.507c0.10902-2.8113-1.1989-4.2173-3.9216-4.2173zm100.31 20.748c-6.7526 0-12.742 1.2383-17.97 3.7122-5.2279 2.474-9.695 5.9595-13.398 10.458-3.5942 4.4982-6.3712 9.8955-8.3317 16.193-1.9605 6.2972-2.9945 13.213-3.1034 20.748-0.21772 14.844 3.2684 26.089 10.457 33.736 7.2974 7.5344 18.678 11.526 34.144 11.975 3.3765 0.11256 6.4272 0.11256 9.1502 0 2.7229 0 5.2283-0.16802 7.5155-0.50524 2.3962-0.33736 4.6278-0.9002 6.697-1.6874 2.1783-0.67471 4.4117-1.6306 6.6989-2.8675 1.9605-0.78714 2.9394-2.3612 2.9394-4.7226l-0.16209-12.313c0-1.5743-0.43528-2.5302-1.3066-2.8675-0.87132-0.44982-1.9605-0.50709-3.2675-0.16967-3.3765 0.89963-7.6248 1.4625-12.744 1.6874-5.1189 0.22479-10.13 0.33746-15.031 0.33746-5.337 0-9.857-0.28223-13.56-0.84466-3.5942-0.56224-6.5349-1.686-8.8221-3.3729-2.2872-1.6869-3.9753-3.9915-5.0642-6.9151-0.98023-3.0362-1.4707-7.0293-1.4707-11.977 0-2.8113 1.3078-4.2156 3.9216-4.2156h55.058c2.614 0 3.9197-1.4061 3.9197-4.2173v-1.5177c0-6.6345-1.034-12.482-3.1034-17.542-2.0694-5.0603-4.8465-9.2786-8.3317-12.652-3.3765-3.4861-7.2428-6.0711-11.599-7.7578-4.3567-1.7992-8.7684-2.6998-13.234-2.6998zm95.084 0c-11.109 0-19.604 2.362-25.486 7.0848-5.8814 4.6104-8.8221 11.301-8.8221 20.073 0 7.197 2.0149 12.651 6.0448 16.362 4.03 3.7109 10.618 6.6339 19.767 8.7702l8.1696 1.8551c3.7032 0.89964 6.5333 2.4736 8.4938 4.7226 1.9604 2.1366 2.8862 4.386 2.7772 6.7474-0.10901 2.2491-1.3064 4.2734-3.5936 6.0724-2.2872 1.7992-5.8264 2.6998-10.619 2.6998-8.4954 0-17.481-2.1368-26.956-6.4101-1.4159-0.6747-2.5602-0.73198-3.4315-0.16966-0.87131 0.56224-1.3066 1.6306-1.3066 3.205v16.53c0 2.3615 1.1443 3.8802 3.4315 4.555 9.8024 3.1486 19.115 4.7226 27.937 4.7226 11.545 0 20.583-2.362 27.118-7.0851 6.5349-4.8355 9.8024-11.637 9.8024-20.408 0-3.8235-0.5436-7.1412-1.6328-9.9526-0.98023-2.8113-2.615-5.2858-4.9022-7.4225-2.2872-2.1366-5.281-3.9357-8.9842-5.3977-3.5942-1.5743-8.0059-2.9804-13.234-4.2173l-5.0642-1.1802c-3.921-0.8996-7.1884-1.8002-9.8024-2.6998-2.614-1.0121-4.7372-2.0785-6.3709-3.203-1.5248-1.237-2.614-2.5878-3.2675-4.0496-0.65349-1.5743-0.98046-3.3736-0.98046-5.3977 0-4.723 1.9066-8.3213 5.7187-10.795 3.8119-2.5864 9.4747-3.8799 16.99-3.8799 7.9509 0 15.356 1.4634 22.218 4.3869 1.4159 0.56225 2.5051 0.61756 3.2675 0.16768 0.87134-0.56224 1.3086-1.6307 1.3086-3.205v-4.0476c0-2.249-1.0892-3.8231-3.2675-4.7226-7.0794-2.4739-15.521-3.7122-25.323-3.7122zm-275.77 1.7576-45.133 35.638 17.24 57.669h55.788l1.2344-4.1336 16.005-53.535zm180.69 6.6774c6.5349 0 11.981 1.9117 16.337 5.735 4.4654 3.7109 7.2428 8.7706 8.3317 15.18 0.21773 1.3494 0.0543 2.4731-0.49022 3.3729-0.54455 0.78714-1.5234 1.1821-2.9394 1.1821l-43.947 0.16768c-2.8318 0-4.0843-1.4614-3.7576-4.3853 0.32675-3.0362 1.1973-5.8486 2.6132-8.4349 1.5248-2.5864 3.4315-4.8339 5.7187-6.7454 2.3962-1.9117 5.1202-3.3749 8.1696-4.3869 3.0496-1.1245 6.3703-1.6854 9.9645-1.6854zm-180.69 8.1052c13.506 0 28.086 12.128 32.199 25.425 4.2274 13.672-1.1242 32.62-12.299 41.14-10.676 8.1404-29.122 8.1404-39.798 0-11.174-8.5202-16.528-27.469-12.301-41.14 4.112-13.298 18.692-25.425 32.199-25.425z" style="fill:#ed1c24;stroke-linecap:round;stroke-linejoin:round;stroke-width:3.7772;stroke:#000"/>
	</g>
</svg>
